<svg id="Capa_1" enable-background="new 0 0 512.007 512.007" height="512" viewBox="0 0 512.007 512.007" width="512" xmlns="http://www.w3.org/2000/svg" xmlns:xlink="http://www.w3.org/1999/xlink"><linearGradient id="SVGID_1_" gradientUnits="userSpaceOnUse" x1="256.003" x2="256.003" y1="512.003" y2="238.229"><stop offset="0" stop-color="#a93aff"/><stop offset="1" stop-color="#ff81ff"/></linearGradient><linearGradient id="SVGID_2_" gradientUnits="userSpaceOnUse" x1="256.003" x2="256.003" y1="301.003" y2=".003"><stop offset="0" stop-color="#ffbef9"/><stop offset="1" stop-color="#fff1ff"/></linearGradient><g><g><g><path d="m509.777 489.137-154.789-250.908h-197.97l-154.788 250.908c-2.856 4.629-2.974 10.444-.322 15.19 2.651 4.731 7.661 7.676 13.096 7.676h482c5.435 0 10.444-2.944 13.096-7.676 2.65-4.746 2.533-10.561-.323-15.19z" fill="url(#SVGID_1_)"/></g></g><g><g><path d="m243.23 97.137-86.211 141.092 58.379 58.379c5.859 5.859 15.352 5.859 21.211 0l19.395-19.395 19.395 19.395c2.93 2.93 6.768 4.395 10.605 4.395s7.676-1.465 10.605-4.395l58.379-58.379-86.211-141.092c-5.449-8.877-20.098-8.877-25.547 0zm-62.227-22.134c0-24.814-20.186-45-45-45h-23.027c-10.591-18.296-31.322-30-52.973-30-33.091 0-60 26.909-60 60s26.909 60 60 60h76c24.815 0 45-20.185 45-45zm286 15h-24.027c-10.591-18.296-30.322-30-51.973-30-33.091 0-60 26.909-60 60s26.909 60 60 60h76c24.814 0 45-20.186 45-45s-20.185-45-45-45z" fill="url(#SVGID_2_)"/></g></g></g></svg>